<svg width="99" height="76" viewBox="0 0 99 76" fill="none" xmlns="http://www.w3.org/2000/svg">
<path d="M94.5 12L84 19.5C79 10 68 12 68 19.5C68 31 98.5 30.5 98.5 53C98.5 68 89.5 74.5 78 75.5C66.5 76.5 56 70 50 60L61.5 53C63.1667 56.5 68.5 62 75.5 62C81.5 62 85 58 85 54.5C85 41 54.5 45.5 54.5 19.5C54.5 3.5 70 -3.8147e-06 74.5 -3.8147e-06C79 -3.8147e-06 86.5 -0.500004 94.5 12Z" fill="#2E2E2E"/>
<path d="M28.5 0.999996H42.5V56.5C41.5 78.5 10.5 82.5 0.5 61.5L12 54.5C13 56.5 14 58.2857 16 60C19.5 63 27.1275 62.8917 28.5 55V0.999996Z" fill="#2E2E2E"/>
</svg>
